<svg width="216" height="96" viewBox="0 0 216 96" fill="none" xmlns="http://www.w3.org/2000/svg">
<rect x="0.65271" y="14.7783" width="107" height="63.4147" rx="8" fill="#2C6BCA"/>
<path d="M100.255 54.4961C100.255 55.4987 100.124 56.4036 99.864 57.2109C99.6166 58.0052 99.2846 58.7083 98.868 59.3203C98.4513 59.9323 97.963 60.4531 97.4031 60.8828C96.8432 61.3125 96.2638 61.6641 95.6648 61.9375C95.0659 62.2109 94.4539 62.4128 93.8289 62.543C93.2169 62.6732 92.6375 62.7383 92.0906 62.7383H72.5008V57.6602H92.0906C93.0672 57.6602 93.8224 57.3737 94.3562 56.8008C94.9031 56.2279 95.1765 55.4596 95.1765 54.4961C95.1765 54.0273 95.1049 53.5977 94.9617 53.207C94.8185 52.8164 94.6101 52.4779 94.3367 52.1914C94.0763 51.9049 93.7508 51.6836 93.3601 51.5273C92.9825 51.3711 92.5594 51.293 92.0906 51.293H80.4109C79.5906 51.293 78.7052 51.1497 77.7547 50.8633C76.8041 50.5638 75.9187 50.0885 75.0984 49.4375C74.2911 48.7865 73.614 47.9336 73.0672 46.8789C72.5333 45.8242 72.2664 44.5352 72.2664 43.0117C72.2664 41.4883 72.5333 40.2057 73.0672 39.1641C73.614 38.1094 74.2911 37.2565 75.0984 36.6055C75.9187 35.9414 76.8041 35.4661 77.7547 35.1797C78.7052 34.8802 79.5906 34.7305 80.4109 34.7305H97.6961V39.8086H80.4109C79.4474 39.8086 78.6922 40.1016 78.1453 40.6875C77.6114 41.2734 77.3445 42.0482 77.3445 43.0117C77.3445 43.9883 77.6114 44.763 78.1453 45.3359C78.6922 45.8958 79.4474 46.1758 80.4109 46.1758H92.0906H92.1297C92.6765 46.1888 93.256 46.2669 93.868 46.4102C94.4799 46.5404 95.0854 46.7487 95.6844 47.0352C96.2963 47.3216 96.8758 47.6862 97.4226 48.1289C97.9695 48.5586 98.4513 49.0794 98.868 49.6914C99.2976 50.3034 99.6362 51.0065 99.8836 51.8008C100.131 52.5951 100.255 53.4935 100.255 54.4961ZM108.145 60.1797C108.145 60.5312 108.074 60.8633 107.93 61.1758C107.8 61.4753 107.618 61.7422 107.384 61.9766C107.162 62.1979 106.895 62.3737 106.583 62.5039C106.283 62.6341 105.964 62.6992 105.626 62.6992C105.274 62.6992 104.942 62.6341 104.63 62.5039C104.33 62.3737 104.063 62.1979 103.829 61.9766C103.608 61.7422 103.432 61.4753 103.302 61.1758C103.171 60.8633 103.106 60.5312 103.106 60.1797C103.106 59.8411 103.171 59.5221 103.302 59.2227C103.432 58.9102 103.608 58.6432 103.829 58.4219C104.063 58.1875 104.33 58.0052 104.63 57.875C104.942 57.7318 105.274 57.6602 105.626 57.6602C105.964 57.6602 106.283 57.7318 106.583 57.875C106.895 58.0052 107.162 58.1875 107.384 58.4219C107.618 58.6432 107.8 58.9102 107.93 59.2227C108.074 59.5221 108.145 59.8411 108.145 60.1797Z" fill="white"/>
<path d="M130.958 62.7383H125.88V48.7344C125.88 48.0703 125.704 47.569 125.352 47.2305C125.001 46.8789 124.48 46.7031 123.79 46.7031H117.188V62.7383H112.11V44.1445C112.11 43.793 112.175 43.4674 112.305 43.168C112.436 42.8555 112.618 42.5885 112.852 42.3672C113.087 42.1328 113.36 41.9505 113.673 41.8203C113.985 41.6901 114.317 41.625 114.669 41.625H123.829C124.532 41.625 125.287 41.7487 126.095 41.9961C126.902 42.2435 127.67 42.6406 128.399 43.1875V41.625H135.274C135.756 41.625 136.264 41.6836 136.798 41.8008C137.331 41.9049 137.859 42.0742 138.38 42.3086C138.914 42.543 139.421 42.849 139.903 43.2266C140.385 43.5911 140.808 44.0404 141.173 44.5742C141.537 45.0951 141.83 45.7005 142.052 46.3906C142.273 47.0807 142.384 47.862 142.384 48.7344V62.7383H137.305V48.7344C137.305 48.0703 137.136 47.569 136.798 47.2305C136.472 46.8789 135.964 46.7031 135.274 46.7031H130.704C130.873 47.3281 130.958 48.0052 130.958 48.7344V62.7383ZM168.868 55.7461C168.868 56.4492 168.744 57.2109 168.497 58.0312C168.249 58.8385 167.846 59.5938 167.286 60.2969C166.739 60.987 166.016 61.5664 165.118 62.0352C164.233 62.5039 163.152 62.7383 161.876 62.7383H152.716C152.012 62.7383 151.251 62.6146 150.43 62.3672C149.623 62.1198 148.868 61.7227 148.165 61.1758C147.475 60.6159 146.895 59.8932 146.427 59.0078C145.958 58.1094 145.723 57.0221 145.723 55.7461C145.723 55.043 145.847 54.2812 146.095 53.4609C146.342 52.6406 146.739 51.8854 147.286 51.1953C147.846 50.4922 148.568 49.9062 149.454 49.4375C150.352 48.9688 151.44 48.7344 152.716 48.7344H161.876V53.5781H152.716C152.026 53.5781 151.492 53.793 151.114 54.2227C150.736 54.6393 150.548 55.1602 150.548 55.7852C150.548 56.4492 150.762 56.9701 151.192 57.3477C151.635 57.7122 152.156 57.8945 152.755 57.8945H161.876C162.566 57.8945 163.1 57.6862 163.477 57.2695C163.855 56.8529 164.044 56.332 164.044 55.707V48.6172C164.044 47.9531 163.835 47.4258 163.419 47.0352C163.015 46.6445 162.501 46.4492 161.876 46.4492H150.723V41.625H161.876C162.579 41.625 163.334 41.7487 164.141 41.9961C164.962 42.2435 165.717 42.6471 166.407 43.207C167.11 43.7539 167.696 44.4766 168.165 45.375C168.634 46.2604 168.868 47.3411 168.868 48.6172V55.7461ZM191.68 46.7031H180.255C179.565 46.7031 179.044 46.8789 178.692 47.2305C178.341 47.569 178.165 48.0703 178.165 48.7344V62.7383H173.087V48.7344C173.087 47.862 173.197 47.0807 173.419 46.3906C173.64 45.7005 173.933 45.0951 174.298 44.5742C174.675 44.0404 175.105 43.5911 175.587 43.2266C176.068 42.849 176.57 42.543 177.091 42.3086C177.624 42.0742 178.158 41.9049 178.692 41.8008C179.239 41.6836 179.747 41.625 180.216 41.625H191.68V46.7031ZM214.239 46.7031H205.372V62.7383H200.235V46.7031H193.634V41.625H200.235V34.7305H205.372V41.625H214.239V46.7031Z" fill="#2C6BCA"/>
</svg>
